<svg version="1.2" xmlns="http://www.w3.org/2000/svg" viewBox="0 0 1530 329" width="1530" height="329">
	<title>logo</title>
	<style>
		.s0 { fill: #121212 } 
	</style>
	<path id="Layer" class="s0" d="m452.4 0c-40.9 0-64.3 23.2-64.3 61.7 0 37.2 23.4 61.2 63.6 61.2 36.9 0 58.5-19 62.1-49.2h-28c-2.6 17.2-13.2 27.6-33.9 27.6-23 0-36.6-13.4-36.6-39.8 0-26.5 12.2-39.9 36.6-39.9 19.9 0 30.3 10 33.1 27.5h27.8c-3.6-29.3-22.6-49.1-60.4-49.1z"/>
	<path id="Layer" fill-rule="evenodd" class="s0" d="m585.3 122.9c-34.9 0-63.1-27.4-63.1-61.4 0-34 28.2-61.5 63.1-61.5 34.9 0 63.1 27.5 63.1 61.5 0 34-28.2 61.4-63.1 61.4zm36-61.4c0-22.1-16.1-39.9-36-39.9-19.9 0-36 17.8-36 39.9 0 22 16.1 39.8 36 39.8 19.9 0 36-17.8 36-39.8z"/>
	<path id="Layer" class="s0" d="m689.8 2h-26.8v118.9h26.8v-80.7c7-13.4 16.6-19.6 32-19.6 19.1 0 28.9 8.8 28.9 28.1v72.2h26.8v-76.1c0-28.4-15.6-44.8-43.2-44.8-24.3 0-37.7 12.6-44.5 33.6z"/>
	<path id="Layer" class="s0" d="m816.7 84.5h-28c3 23.8 20.8 38.4 59.1 38.4 38.4 0 54.6-15.8 54.6-37 0-18-8.6-30.4-34.6-33.4l-35.8-4.2c-10.5-1.2-14.3-5.4-14.3-12.4 0-8.5 6.3-14.9 26.7-14.9 20.4 0 27.4 6.8 29 17.3h27.8c-3.4-22.7-18-38.3-56-38.3-37.9 0-53.3 16.2-53.3 37.4 0 18.7 9.8 29.9 35.9 32.9l34.4 4c11.4 1.4 14.4 6.2 14.4 12.6 0 8.6-7.8 15-28.2 15-20.4 0-29.5-5.6-31.7-17.4z"/>
	<path id="Layer" fill-rule="evenodd" class="s0" d="m974.7 0c43.3 0 61.3 26.6 61.1 68.3h-96.1c2.4 21.2 15.4 33 35.6 33 18.2 0 28.4-7 32.3-18.8h27.4c-6 24.4-26.7 40.4-60.5 40.4-40.4 0-62-26.2-62-61 0-36.9 23.2-61.9 62.2-61.9zm-0.2 21c-18.6 0-31 10-34.4 29h67.5c-1.8-17.6-11.9-29-33.1-29z"/>
	<path id="Layer" class="s0" d="m1075.8 2h-26.8v118.9h26.8v-80.7c7-13.4 16.5-19.6 31.9-19.6 19.2 0 29 8.8 29 28.1v72.2h26.8v-76.1c0-28.4-15.6-44.8-43.2-44.8-24.4 0-37.7 12.6-44.5 33.6z"/>
	<path id="Layer" class="s0" d="m1202.6 84.5h-27.9c3 23.8 20.8 38.4 59.1 38.4 38.4 0 54.6-15.8 54.6-37 0-18-8.6-30.4-34.6-33.4l-35.8-4.2c-10.6-1.2-14.4-5.4-14.4-12.4 0-8.5 6.4-14.9 26.8-14.9 20.4 0 27.4 6.8 29 17.3h27.8c-3.4-22.7-18-38.3-56-38.3-37.9 0-53.3 16.2-53.3 37.4 0 18.7 9.8 29.9 35.9 32.9l34.4 4c11.4 1.4 14.4 6.2 14.4 12.6 0 8.6-7.8 15-28.2 15-20.4 0-29.6-5.6-31.8-17.4z"/>
	<path id="Layer" class="s0" d="m1366.2 150.1l49.8-148.1h-28l-34.3 104.1-35.8-104.1h-29.6l39 105.9h25.8l-6.6 20.2h-45.2v22z"/>
	<path id="Layer" class="s0" d="m1443.6 84.5h-28c3 23.8 20.8 38.4 59.1 38.4 38.4 0 54.6-15.8 54.6-37 0-18-8.6-30.4-34.6-33.4l-35.7-4.2c-10.6-1.2-14.4-5.4-14.4-12.4 0-8.4 6.4-14.8 26.7-14.8 20.4 0 27.4 6.8 29 17.2h27.8c-3.4-22.7-18-38.3-56-38.3-37.9 0-53.3 16.2-53.3 37.5 0 18.6 9.8 29.8 36 32.8l34.3 4c11.4 1.4 14.4 6.2 14.4 12.6 0 8.6-7.8 15-28.2 15-20.3 0-29.5-5.6-31.7-17.4z"/>
	<path id="Layer" fill-rule="evenodd" class="s0" d="m163.2 329c-90.1 0-163.2-73.2-163.2-163.5 0-90.3 73.1-163.5 163.2-163.5h163.2v118.9h-0.1 0.1v44.6c0 90.3-73.1 163.5-163.2 163.5zm-37.1-126.3h118.7l81.5-81.8h-118.6v-118.9l-81.6 81.8z"/>
</svg>