<svg width="101" height="36" viewBox="0 0 101 36" fill="none" xmlns="http://www.w3.org/2000/svg">
<g id="Group 19">
<g id="Group 1">
<path id="Vector" d="M0 26.6406V35.9558H9.29278C9.29278 30.8108 5.13255 26.6406 0 26.6406Z" fill="white"/>
<path id="Vector_2" d="M26.9795 24.2995C26.9795 15.799 20.106 8.90887 11.6259 8.90887H0V14.0391H20.8179C21.3933 14.0391 21.8616 14.5085 21.8616 15.0854V24.2995V35.9536H26.9795V24.2995Z" fill="white"/>
<path id="Vector_3" d="M2.78258 17.7758H0V22.906H2.78258H11.9746C12.55 22.906 13.0183 23.3755 13.0183 23.9523V33.1665V35.9558H18.1361V33.1665C18.1361 24.668 11.2626 17.7779 2.78258 17.7779V17.7758Z" fill="white"/>
<path id="Vector_4" d="M35.8229 15.4349C35.8229 6.93645 28.9494 0.04422 20.4714 0.04422H0V5.17444H29.6613C30.2367 5.17444 30.705 5.64389 30.705 6.2207V15.4349V35.9558H35.8229V15.4349Z" fill="white"/>
</g>
<g id="Group 2">
<path id="Vector_5" d="M41.465 0H44.6298C45.6421 0 46.5262 0.208409 47.2822 0.625226C48.0382 1.04204 48.6199 1.62517 49.0274 2.3746C49.4348 3.12403 49.6364 3.99134 49.6364 4.97655C49.6364 5.96175 49.4327 6.81855 49.0274 7.57219C48.6199 8.32582 48.0382 8.91105 47.2822 9.32787C46.5262 9.74469 45.6421 9.9531 44.6298 9.9531H41.465V0ZM44.6298 8.53213C45.6988 8.53213 46.522 8.21215 47.0995 7.57219C47.677 6.93222 47.9647 6.06701 47.9647 4.97655C47.9647 3.88609 47.677 3.02087 47.0995 2.38091C46.522 1.74095 45.6988 1.42097 44.6298 1.42097H43.0968V8.53213H44.6298Z" fill="white"/>
<path id="Vector_6" d="M51.0916 4.35968C51.3899 3.79551 51.8057 3.35974 52.3412 3.05029C52.8746 2.74294 53.4878 2.58716 54.1787 2.58716C54.8697 2.58716 55.4955 2.73031 56.031 3.0145C56.5644 3.2987 56.9865 3.70288 57.2931 4.22285C57.5997 4.74493 57.7593 5.35542 57.7698 6.05853C57.7698 6.248 57.7551 6.44167 57.7278 6.64166H52.2509V6.72586C52.2887 7.36161 52.4861 7.86264 52.8473 8.23314C53.2064 8.60365 53.6852 8.78679 54.2795 8.78679C54.752 8.78679 55.149 8.67522 55.4703 8.45208C55.7916 8.22893 56.0058 7.91316 56.1087 7.50687H57.6417C57.5094 8.24577 57.1524 8.85416 56.5707 9.32781C55.989 9.80147 55.2624 10.0393 54.3929 10.0393C53.6369 10.0393 52.9754 9.88567 52.4147 9.57622C51.8519 9.26887 51.4171 8.83521 51.1084 8.27524C50.8018 7.71528 50.6485 7.06689 50.6485 6.32588C50.6485 5.58488 50.7976 4.91965 51.0958 4.35547L51.0916 4.35968ZM56.2053 5.51751C56.1381 4.98702 55.9281 4.5723 55.5732 4.27337C55.2183 3.97444 54.7709 3.82498 54.2333 3.82498C53.7314 3.82498 53.2988 3.97866 52.9355 4.28811C52.5722 4.59546 52.3601 5.00596 52.3034 5.51751H56.2053Z" fill="white"/>
<path id="Vector_7" d="M57.9924 2.67361H59.6388L61.6402 8.30486L63.6121 2.67361H65.2292L62.5474 9.95529H60.6742L57.9924 2.67361Z" fill="white"/>
<path id="Vector_8" d="M40.6712 22.9334L44.3883 12.9782H46.3308L50.0332 22.9334H48.2881L47.3515 20.4725H43.2794L42.3575 22.9334H40.6691H40.6712ZM43.7352 19.081H46.9L45.3102 14.7444L43.7352 19.081Z" fill="white"/>
<path id="Vector_9" d="M56.178 22.3018C55.5921 22.7797 54.8402 23.0197 53.9225 23.0197C53.2043 23.0197 52.5701 22.866 52.022 22.5565C51.4738 22.2492 51.0496 21.8092 50.7514 21.2408C50.4532 20.6724 50.3041 20.0177 50.3041 19.2788C50.3041 18.5399 50.4553 17.8894 50.7577 17.3295C51.0601 16.7695 51.4885 16.3358 52.0409 16.0285C52.5953 15.7211 53.2358 15.5654 53.9645 15.5654C54.8717 15.5654 55.6152 15.8054 56.1906 16.2832C56.7681 16.7611 57.1272 17.4137 57.27 18.2389H55.695C55.59 17.8221 55.3821 17.4895 55.0712 17.2432C54.7583 16.9969 54.3761 16.8727 53.9225 16.8727C53.3072 16.8727 52.8137 17.0958 52.4399 17.54C52.0661 17.9863 51.8792 18.5631 51.8792 19.2746C51.8792 19.9862 52.0661 20.5819 52.4399 21.0303C52.8137 21.4808 53.3072 21.7061 53.9225 21.7061C54.395 21.7061 54.7877 21.5798 55.1006 21.3292C55.4136 21.0787 55.6152 20.7398 55.7097 20.3125H57.27C57.1272 21.1566 56.7639 21.8176 56.178 22.2955V22.3018Z" fill="white"/>
<path id="Vector_10" d="M65.4562 21.5966V22.9333H64.6476C64.1751 22.9333 63.8349 22.8344 63.627 22.6344C63.4191 22.4344 63.3141 22.146 63.3141 21.7671C62.766 22.6007 61.9659 23.0196 60.9158 23.0196C60.1031 23.0196 59.45 22.8302 58.9586 22.4513C58.4671 22.0723 58.2214 21.5503 58.2214 20.8871C58.2214 20.1377 58.486 19.563 59.0153 19.1588C59.5445 18.7567 60.3152 18.5546 61.3274 18.5546H63.1566V18.1147C63.1566 17.7063 63.0138 17.3863 62.7303 17.1547C62.4468 16.9232 62.0541 16.8074 61.5521 16.8074C61.1069 16.8074 60.7415 16.9042 60.4538 17.0979C60.1661 17.2916 59.9918 17.5505 59.9351 17.8726H58.4314C58.507 17.1421 58.8284 16.5758 59.3954 16.1737C59.9624 15.7716 60.7058 15.5695 61.6235 15.5695C62.598 15.5695 63.3498 15.7969 63.879 16.2516C64.4082 16.7063 64.6728 17.361 64.6728 18.2136V21.0871C64.6728 21.4282 64.8324 21.5987 65.1558 21.5987H65.4541L65.4562 21.5966ZM63.1566 19.6914H61.256C60.7835 19.6914 60.4181 19.784 60.164 19.9693C59.9078 20.1545 59.7818 20.4261 59.7818 20.7861C59.7818 21.0998 59.9015 21.3503 60.143 21.5397C60.3845 21.7292 60.7121 21.8239 61.1279 21.8239C61.7621 21.8239 62.2557 21.6534 62.6106 21.3124C62.9655 20.9713 63.1461 20.5166 63.1566 19.9461V19.6893V19.6914Z" fill="white"/>
<path id="Vector_11" d="M73.3439 12.9781V22.9333H72.0104L71.8256 21.8386C71.2481 22.626 70.4585 23.0196 69.4567 23.0196C68.7952 23.0196 68.203 22.8702 67.6822 22.5712C67.1614 22.2723 66.754 21.8408 66.462 21.2766C66.168 20.7124 66.0231 20.0514 66.0231 19.2935C66.0231 18.5357 66.1722 17.902 66.4704 17.3379C66.7686 16.7737 67.1782 16.3379 67.6969 16.0285C68.2156 15.7211 68.8036 15.5653 69.4567 15.5653C69.9859 15.5653 70.4501 15.6622 70.847 15.8558C71.2439 16.0495 71.5652 16.319 71.8109 16.66V12.976H73.3439V12.9781ZM71.2439 21.0576C71.6324 20.6114 71.8256 20.0345 71.8256 19.323C71.8256 18.6115 71.6324 18.0031 71.2439 17.5526C70.8554 17.1021 70.3451 16.8768 69.7108 16.8768C69.0766 16.8768 68.5663 17.1021 68.1778 17.5526C67.7893 18.0031 67.5961 18.5841 67.5961 19.2956C67.5961 20.0072 67.7893 20.6008 68.1778 21.0513C68.5663 21.5018 69.0766 21.7271 69.7108 21.7271C70.3451 21.7271 70.8554 21.5039 71.2439 21.0597V21.0576Z" fill="white"/>
<path id="Vector_12" d="M74.7407 17.3379C75.0389 16.7737 75.4547 16.338 75.9902 16.0285C76.5236 15.7211 77.1368 15.5654 77.8278 15.5654C78.5187 15.5654 79.1445 15.7085 79.68 15.9927C80.2134 16.2769 80.6355 16.6811 80.9421 17.2011C81.2487 17.7231 81.4084 18.3336 81.4189 19.0367C81.4189 19.2262 81.4042 19.4199 81.3769 19.6199H75.8999V19.7041C75.9377 20.3398 76.1351 20.8408 76.4963 21.2114C76.8554 21.5819 77.3342 21.765 77.9285 21.765C78.4011 21.765 78.798 21.6534 79.1193 21.4303C79.4406 21.2071 79.6548 20.8914 79.7577 20.4851H81.2908C81.1584 21.224 80.8014 21.8324 80.2197 22.306C79.638 22.7797 78.9114 23.0176 78.042 23.0176C77.2859 23.0176 76.6244 22.8639 76.0637 22.5544C75.5009 22.2471 75.0662 21.8134 74.7575 21.2535C74.4509 20.6935 74.2975 20.0451 74.2975 19.3041C74.2975 18.5631 74.4467 17.8979 74.7449 17.3337L74.7407 17.3379ZM79.8564 18.4978C79.7892 17.9673 79.5792 17.5526 79.2243 17.2537C78.8694 16.9548 78.4221 16.8053 77.8844 16.8053C77.3825 16.8053 76.9499 16.959 76.5866 17.2684C76.2233 17.5758 76.0112 17.9863 75.9545 18.4978H79.8564Z" fill="white"/>
<path id="Vector_13" d="M92.696 16.3421C93.1979 16.86 93.4478 17.6852 93.4478 18.8241V22.9333H91.9148V18.8367C91.9148 18.2009 91.7867 17.7189 91.5326 17.3863C91.2764 17.0536 90.8984 16.8894 90.3964 16.8894C89.8672 16.8894 89.4493 17.0768 89.1406 17.4515C88.8319 17.8262 88.6786 18.3399 88.6786 18.9946V22.9333H87.1329V18.8367C87.1329 18.1925 87.0027 17.7062 86.7423 17.3799C86.4819 17.0536 86.1018 16.8894 85.5999 16.8894C85.098 16.8894 84.6654 17.0831 84.3588 17.4726C84.0501 17.862 83.8968 18.382 83.8968 19.0367V22.9333H82.3637V15.6516H83.6972L83.8674 16.6052C84.3861 15.9232 85.0959 15.5758 85.9947 15.5674C86.505 15.5674 86.9544 15.6769 87.343 15.8937C87.7294 16.1126 88.0276 16.4432 88.2355 16.8894C88.4917 16.4726 88.8256 16.1484 89.2435 15.9148C89.6593 15.6832 90.1612 15.5674 90.7472 15.5674C91.541 15.5674 92.1899 15.8263 92.6897 16.3421H92.696Z" fill="white"/>
<path id="Vector_14" d="M95.2349 15.6516L97.2635 21.2703L99.2355 15.6516H100.867L97.5764 24.0701C97.4063 24.5059 97.2509 24.8406 97.1081 25.0721C96.9653 25.3037 96.791 25.4805 96.5831 25.5984C96.3752 25.7163 96.0959 25.7753 95.7452 25.7753H94.1008V24.4238H95.1782C95.4722 24.4238 95.6759 24.3795 95.7893 24.289C95.9027 24.1985 96.0203 23.9985 96.1442 23.6849L96.4424 22.9881L93.6052 15.6495H95.237L95.2349 15.6516Z" fill="white"/>
<path id="Vector_15" d="M40.6712 35.9137L44.3883 25.9585H46.3308L50.0332 35.9137H48.2881L47.3515 33.4528H43.2794L42.3575 35.9137H40.6691H40.6712ZM43.7352 32.0592H46.9L45.3102 27.7226L43.7352 32.0592Z" fill="white"/>
<path id="Vector_16" d="M52.0703 35.5369C51.5074 35.2295 51.0727 34.7938 50.764 34.2296C50.4574 33.6654 50.3041 33.0128 50.3041 32.2739C50.3041 31.535 50.4574 30.8972 50.764 30.333C51.0706 29.7688 51.5074 29.3309 52.0703 29.0173C52.6331 28.7036 53.2778 28.5478 54.0065 28.5478C54.7352 28.5478 55.38 28.7036 55.9428 29.0173C56.5056 29.3309 56.9403 29.7688 57.249 30.333C57.5556 30.8972 57.711 31.5434 57.711 32.2739C57.711 33.0044 57.5577 33.6654 57.249 34.2296C56.9424 34.7938 56.5077 35.2295 55.9428 35.5369C55.38 35.8442 54.7352 36 54.0065 36C53.2778 36 52.6331 35.8463 52.0703 35.5369ZM55.5606 34.0149C55.9533 33.5644 56.1486 32.9833 56.1486 32.2718C56.1486 31.5603 55.9512 30.9793 55.5606 30.5288C55.1679 30.0783 54.6491 29.853 54.0065 29.853C53.3639 29.853 52.8473 30.0783 52.4609 30.5288C52.0724 30.9793 51.8792 31.5603 51.8792 32.2718C51.8792 32.9833 52.0724 33.5644 52.4609 34.0149C52.8494 34.4654 53.3639 34.6906 54.0065 34.6906C54.6491 34.6906 55.1679 34.4654 55.5606 34.0149Z" fill="white"/>
<path id="Vector_17" d="M59.3556 29.9814H58.0934V28.6299H59.3556V26.5963H60.9012V28.6299H62.6464V29.9814H60.9012V33.7791C60.9012 34.0633 60.9579 34.2654 61.0713 34.3833C61.1847 34.5011 61.3779 34.5601 61.653 34.5601H62.8165V35.9116H61.3401C60.6492 35.9116 60.1452 35.7495 59.8302 35.4274C59.5131 35.1053 59.3556 34.6085 59.3556 33.9349V29.9814Z" fill="white"/>
<path id="Vector_18" d="M63.944 30.3161C64.2422 29.7519 64.658 29.3161 65.1936 29.0067C65.727 28.6993 66.3402 28.5435 67.0311 28.5435C67.722 28.5435 68.3479 28.6867 68.8834 28.9709C69.4168 29.2551 69.8389 29.6593 70.1455 30.1792C70.4521 30.7013 70.6117 31.3118 70.6222 32.0149C70.6222 32.2044 70.6075 32.3981 70.5802 32.598H65.1033V32.6823C65.1411 33.318 65.3385 33.819 65.6997 34.1895C66.0588 34.56 66.5376 34.7432 67.1319 34.7432C67.6044 34.7432 68.0013 34.6316 68.3227 34.4085C68.644 34.1853 68.8582 33.8696 68.9611 33.4633H70.4941C70.3618 34.2022 70.0048 34.8105 69.4231 35.2842C68.8414 35.7579 68.1147 35.9957 67.2453 35.9957C66.4893 35.9957 65.8278 35.8421 65.2671 35.5326C64.7043 35.2253 64.2695 34.7916 63.9608 34.2316C63.6542 33.6717 63.5009 33.0233 63.5009 32.2823C63.5009 31.5413 63.65 30.876 63.9482 30.3119L63.944 30.3161ZM69.0598 31.476C68.9926 30.9455 68.7826 30.5308 68.4277 30.2319C68.0727 29.9329 67.6254 29.7835 67.0878 29.7835C66.5859 29.7835 66.1533 29.9371 65.79 30.2466C65.4267 30.554 65.2146 30.9645 65.1579 31.476H69.0598Z" fill="white"/>
<path id="Vector_19" d="M79.0897 34.5769V35.9136H78.2811C77.8086 35.9136 77.4684 35.8147 77.2605 35.6147C77.0526 35.4147 76.9476 35.1263 76.9476 34.7474C76.3995 35.581 75.5994 36 74.5493 36C73.7366 36 73.0835 35.8105 72.5921 35.4316C72.1007 35.0526 71.8549 34.5306 71.8549 33.8674C71.8549 33.118 72.1196 32.5433 72.6488 32.1391C73.178 31.737 73.9487 31.535 74.9609 31.535H76.7922V31.095C76.7922 30.6866 76.6494 30.3666 76.3659 30.135C76.0824 29.9035 75.6897 29.7877 75.1877 29.7877C74.7425 29.7877 74.3771 29.8845 74.0873 30.0782C73.7996 30.2719 73.6274 30.5308 73.5686 30.8529H72.065C72.1406 30.1224 72.4619 29.5561 73.0289 29.154C73.5959 28.752 74.3393 28.5499 75.255 28.5499C76.2294 28.5499 76.9812 28.7772 77.5104 29.2319C78.0396 29.6866 78.3042 30.3413 78.3042 31.1939V34.0674C78.3042 34.4085 78.4659 34.579 78.7873 34.579H79.0855L79.0897 34.5769ZM76.7922 32.6696H74.8916C74.4191 32.6696 74.0537 32.7622 73.7996 32.9475C73.5434 33.1328 73.4153 33.4043 73.4153 33.7643C73.4153 34.078 73.5371 34.3285 73.7765 34.5179C74.018 34.7074 74.3456 34.8021 74.7635 34.8021C75.3978 34.8021 75.8913 34.6316 76.2462 34.2906C76.6011 33.9495 76.7817 33.4948 76.7922 32.9243V32.6675V32.6696Z" fill="white"/>
<path id="Vector_20" d="M84.51 28.632V30.0677H83.8296C83.1953 30.0677 82.7375 30.274 82.454 30.6866C82.1705 31.0992 82.0277 31.6234 82.0277 32.2571V35.9116H80.4947V28.6299H81.8576L82.0277 29.7246C82.2356 29.3836 82.5044 29.1162 82.8362 28.9204C83.168 28.7268 83.6112 28.6299 84.1698 28.6299H84.51V28.632Z" fill="white"/>
<path id="Vector_21" d="M86.6456 35.5369C86.0828 35.2295 85.6481 34.7938 85.3394 34.2296C85.0307 33.6654 84.8774 33.0128 84.8774 32.2739C84.8774 31.535 85.0307 30.8972 85.3394 30.333C85.646 29.7688 86.0807 29.3309 86.6456 29.0173C87.2084 28.7036 87.8532 28.5478 88.5819 28.5478C89.3106 28.5478 89.9553 28.7036 90.5181 29.0173C91.081 29.3309 91.5157 29.7688 91.8244 30.333C92.131 30.8972 92.2843 31.5434 92.2843 32.2739C92.2843 33.0044 92.131 33.6654 91.8244 34.2296C91.5157 34.7938 91.081 35.2295 90.5181 35.5369C89.9553 35.8442 89.3085 36 88.5819 36C87.8553 36 87.2084 35.8463 86.6456 35.5369ZM90.1338 34.0149C90.5265 33.5644 90.724 32.9833 90.724 32.2718C90.724 31.5603 90.5265 30.9793 90.1338 30.5288C89.7411 30.0783 89.2245 29.853 88.5798 29.853C87.9351 29.853 87.4206 30.0783 87.032 30.5288C86.6435 30.9793 86.4503 31.5603 86.4503 32.2718C86.4503 32.9833 86.6435 33.5644 87.032 34.0149C87.4206 34.4654 87.9351 34.6906 88.5798 34.6906C89.2245 34.6906 89.7411 34.4654 90.1338 34.0149Z" fill="white"/>
<path id="Vector_22" d="M100.471 34.5769V35.9136H99.662C99.1895 35.9136 98.8493 35.8147 98.6414 35.6147C98.4335 35.4147 98.3285 35.1263 98.3285 34.7474C97.7804 35.581 96.9802 36 95.9302 36C95.1175 36 94.4644 35.8105 93.973 35.4316C93.4815 35.0526 93.2358 34.5306 93.2358 33.8674C93.2358 33.118 93.5004 32.5433 94.0297 32.1391C94.5589 31.737 95.3296 31.535 96.3418 31.535H98.171V31.095C98.171 30.6866 98.0282 30.3666 97.7447 30.135C97.4612 29.9035 97.0685 29.7877 96.5665 29.7877C96.1213 29.7877 95.7559 29.8845 95.4682 30.0782C95.1805 30.2719 95.0062 30.5308 94.9495 30.8529H93.4458C93.5214 30.1224 93.8428 29.5561 94.4098 29.154C94.9768 28.752 95.7202 28.5499 96.6379 28.5499C97.6124 28.5499 98.3642 28.7772 98.8934 29.2319C99.4226 29.6866 99.6872 30.3413 99.6872 31.1939V34.0674C99.6872 34.4085 99.8468 34.579 100.17 34.579H100.468L100.471 34.5769ZM98.1731 32.6696H96.2725C95.8 32.6696 95.4346 32.7622 95.1805 32.9475C94.9243 33.1328 94.7983 33.4043 94.7983 33.7643C94.7983 34.078 94.918 34.3285 95.1595 34.5179C95.401 34.7074 95.7286 34.8021 96.1444 34.8021C96.7786 34.8021 97.2722 34.6316 97.6271 34.2906C97.982 33.9495 98.1626 33.4948 98.1731 32.9243V32.6675V32.6696Z" fill="white"/>
</g>
</g>
</svg>
