<?xml version="1.0" encoding="utf-8"?>
<!-- Generator: Adobe Illustrator 28.3.0, SVG Export Plug-In . SVG Version: 6.00 Build 0)  -->
<svg version="1.1" id="uuid-897879dd-2b2a-4933-b598-2da5184613b2"
	 xmlns="http://www.w3.org/2000/svg" xmlns:xlink="http://www.w3.org/1999/xlink" x="0px" y="0px" viewBox="0 0 719.2 264"
	 style="enable-background:new 0 0 719.2 264;" xml:space="preserve">
<style type="text/css">
	.st0{fill:#FFFFFF;}
</style>
<g id="uuid-6cf78a60-c2c9-46ae-93f9-008412054e8d">
	<path class="st0" d="M717.7,77.7c-0.2-0.3-0.6-1.4-0.8-2.1c-0.7-2.2-1.3-4-3-4.7c-0.8-0.3-1.7-0.3-2.5,0.1
		c-20.5,10.8-27.5,5.2-32.7,1.2c-3.8-3-3.4-12.4-3-19.9c0.4-8.3,0.7-14.9-3.8-16.5c-2.6-0.9-5.6,0.5-7.2,2.2
		c-4,4.1-2.7,11.4-1.8,16.7c0.1,0.8,0.3,1.8,0.4,2.7c-0.9-0.8-2-2-3.1-3.6c-3.7-5.3-4-8.3-4.3-12.8c-0.2-2-0.3-4.3-0.8-7.1
		c-1.4-8.1-4.8-10-8.6-12.2c-4.2-2.4-9.9-5.6-17.5-19.9c-0.8-1.5-2.2-1.8-3.3-1.5c-1.5,0.5-2.3,2-2.8,5c-0.3,2.2-0.3,4.7-0.1,7.1
		c1.9,17.9,11.1,30.2,19.2,41c7.2,9.7,12.9,17.3,11.3,26c-1.2,6.5-6,11.4-10.3,15.7c-4.3,4.4-8.4,8.6-6.1,13.2
		c1.4,2.9,3.6,4,5.9,5.2c2.1,1.1,4.4,2.3,7.1,5.2c0.9,1,1.9,2,2.8,2.9c4.8,4.7,5.9,6.4,4.1,9c-2.3,3.1-6.4,5.1-8.3,3.9
		c-2.7-1.5-6-2.3-8.7-3c-1-0.2-1.9-0.5-2.6-0.7c-3.8-1.2-6.1,2.5-7.6,5c-0.3,0.5-0.8,1.3-1.2,1.8c-0.2-1.1-0.3-2.7-0.4-3.9
		c-0.3-4.1-0.6-8.8-4.1-10.4c-3.2-1.4-7.5,0.6-12.6,6.1c-8.8,9.2-11.5,18.1-14.2,26.7c-1.8,5.6-3.4,10.9-6.7,16.1
		c-5.6,8.9-12,11.6-19.5,14.6c-8.5,3.4-18,7.4-28,20.6c-4.6,6.1-8.5,13.1-10.6,19.3c-3.1,8.9-1.6,12.6,0.2,14.2
		c1.7,1.5,3.9,1.3,5.5,1.2c0.5,0,1.3-0.1,1.7,0c-0.1,0.5-0.5,1.5-0.8,2.2c-0.4,1-0.9,2.1-1.3,3.4c-12.2,1.2-30.5,0.9-33.4-13.9
		c0,0,0-0.1,0-0.1c8.6-2.8,13.8-14,11.6-17.1c-0.7-1-2-0.9-7.3-0.2l-1-9.4c-0.1-1.1-1.1-1.9-2.2-1.8l-1.4,0.2
		c-1.1,0.1-1.9,1.1-1.8,2.2l1.1,9.5c-1.1,0.1-2.4,0.3-3.7,0.4c-1.1,0.1-2.1,0.2-3,0.3l-1.1-9.5c-0.1-1.1-1.1-1.9-2.2-1.8l-1.4,0.2
		c-1.1,0.1-1.9,1.1-1.8,2.2l1,9.4c-5.3,0.5-6.6,0.7-7,1.8c-1.5,3.5,6.2,13.5,15.3,14.1c0,0.1,0,0.3,0,0.4c1.4,7,6.4,15.7,22.3,17.8
		c5.3,0.7,10.8,0.5,15.5,0.1c0,0.3,0.1,0.5,0.1,0.8c1,4.9,5.3,9.1,10.5,10.2c1,0.2,2,0.3,3,0.3c1.7,0,3.4-0.3,4.9-0.8
		c3.1-1,5.2-2.9,5.7-5.4c1.1-4.5-3.2-8.9-6.5-10.5c-2-1-4.2-1.4-6.5-1.2c-0.6,0.1-1.4,0.2-2.6,0.4c-0.8,0.1-1.7,0.3-2.7,0.4
		c0.1-0.2,0.2-0.4,0.3-0.6c1-2.1,2.2-4.8,0.4-7.1c-1.6-2.2-4.3-2-6.1-1.9c-0.6,0-1.7,0.1-2,0c-0.3-0.4-0.9-2.9,1.3-9.2
		c2-5.6,5.6-12.1,9.8-17.6c9.2-12.2,17.7-15.6,26-19c8-3.2,15.5-6.3,21.9-16.6c3.6-5.8,5.4-11.6,7.2-17.3
		c2.6-8.4,5.1-16.4,13.1-24.8c4.5-4.7,6.7-5.1,7-5c0,0,0.3,0.2,0.7,1.5c0.3,1.3,0.4,3.1,0.5,4.7c0.2,3.9,0.5,7.9,3.7,8.9
		c3.5,1.1,5.6-2.4,7-4.7c0.5-0.9,1.4-2.4,2-2.8c0.8,0.2,1.8,0.5,2.8,0.7c1.7,0.4,3.7,0.9,5.5,1.6c0,0.1-0.1,0.1-0.2,0.2
		c-1.8,2.6-3,9.1-2.8,12.4c0.4,4.7-4.6,8.8-9.9,13.2c-6.2,5.1-12.5,10.4-12.3,18c0.1,2.7,1,4.5,1.7,5.8c0.7,1.4,0.8,1.6,0.6,2.2
		c-0.6,1.7-3.1,2.1-7.2,2.7c-4.5,0.7-10.1,1.5-14.6,5.5c-4.9,4.3-5.2,9.4-5.6,14.8c-0.3,4.9-0.7,10.5-4.5,17.3
		c-0.2,0.3-0.3,0.6-0.5,1c-2.3,4.4-8.5,16.2-18.6,15.3c-2.9-0.3-7.8-0.7-13.5-8.7c-0.4-0.6-0.8-1.1-1.1-1.5
		c-0.9-1.1-2.4-1.2-3.5-0.3c-1,0.9-1.2,2.4-0.3,3.5c0.2,0.3,0.5,0.7,0.9,1.2c2.3,3.2,7,9.9,17.1,10.7c0.5,0.1,1,0.1,1.5,0.1
		c12.4,0,19.5-13.4,21.9-17.9c0.2-0.4,0.4-0.7,0.5-0.9c4.3-7.8,4.7-14.2,5.1-19.3c0.3-5.1,0.6-8.4,3.9-11.4c3.4-3,8-3.7,12-4.3
		c4.7-0.7,9.5-1.4,11.1-6c1-2.7,0-4.6-0.8-6.1c-0.6-1.1-1.1-2.1-1.2-3.7c-0.2-5.2,5-9.5,10.5-14.1c6-5,12.3-10.2,11.7-17.4
		c-0.2-2.6,1-7.8,1.9-9.2c1.2-1.7,4-1.2,6.3-0.2c1.2,0.5,1.6,1.8,2.1,4c0.5,2,1.2,4.5,3.6,5.4c4.4,1.6,11-0.9,17.7-6.7
		c8-7,15.1-18.2,13-27.6c-0.1-0.3-0.2-0.7-0.3-1c-0.4-1.4-0.8-3-0.2-4.5c0.4-0.9,1.6-1.3,4.1-1.8c2.8-0.6,6.2-1.3,8.9-4.2
		c0.9-1,1.8-1.9,2.7-2.8c5.1-5.4,8.8-9.2,11-12.7C718.7,86,720.6,82,717.7,77.7L717.7,77.7z M546.5,251.4c1-0.2,1.9-0.3,2.2-0.3h0
		c1.4-0.1,2.8,0.1,3.9,0.7c2.3,1.1,4.2,3.6,3.9,4.9c-0.4,1.5-4.4,2.9-7.9,2.2c-3.2-0.7-6.1-3.4-6.7-6.4c0-0.1,0-0.2-0.1-0.4
		C543.8,251.9,545.3,251.6,546.5,251.4L546.5,251.4z M702.4,97.9c-0.9,0.9-1.8,1.8-2.7,2.8c-1.7,1.8-4,2.3-6.4,2.8
		c-2.9,0.6-6.1,1.3-7.6,4.7c-1.4,3.1-0.5,6.1,0,7.8c0.1,0.3,0.2,0.6,0.2,0.8c1.7,7.3-4.8,16.9-11.4,22.7c-5.7,5-10.4,6.5-12.5,5.9
		c-0.2-0.4-0.5-1.4-0.7-2.1c-0.5-2.1-1.3-5-3.8-6.6c1.2-0.9,2.3-2.1,3.3-3.3c2.1-2.9,2.4-5.9,0.8-9c-1.2-2.3-3.3-4.4-5.4-6.5
		c-0.9-0.9-1.8-1.8-2.7-2.7c-3.2-3.5-6.2-5.1-8.4-6.2c-2.1-1.1-3.1-1.7-3.8-3.1c-0.8-1.5,2.1-4.4,5.2-7.5
		c4.5-4.6,10.2-10.3,11.7-18.3c2-10.8-4.6-19.6-12.2-29.8c-7.7-10.3-16.5-22.1-18.2-38.6c-0.1-0.9-0.1-1.9-0.1-2.7
		c7,11.3,12.6,14.5,16.5,16.8c3.5,2,5.1,2.9,6.2,8.8c0.5,2.5,0.6,4.6,0.8,6.6c0.4,4.8,0.7,8.9,5.2,15.3c1.9,2.7,6.8,8.8,10.5,6.5
		c2.4-1.5,1.8-4.7,1.1-9.2c-0.7-4.3-1.7-10.1,0.5-12.4c0.6-0.6,1.6-1,2-0.9c0.1,0.1,0.6,0.8,0.7,3.4c0.1,2.3,0,5.2-0.2,8.2
		c-0.4,9.1-0.9,19.4,4.9,24c4,3.2,8.7,6.2,15.9,6.1c5.3,0,11.8-1.6,20.4-5.9c0.1,0.3,0.2,0.6,0.3,0.8c0.4,1.2,0.8,2.4,1.4,3.3
		C715.8,83.7,712,87.9,702.4,97.9L702.4,97.9z"/>
	<g id="uuid-e6786521-9218-4231-b233-a66ab7c850eb">
		<g>
			<path class="st0" d="M12.3,132c-0.8,0-1.4-0.3-2-0.8c-0.5-0.5-0.8-1.2-0.8-2V53.5c0-0.8,0.3-1.5,0.8-2.1s1.2-0.8,2-0.8h30.1
				c9.4,0,16.8,2.2,22.2,6.5s8.1,10.7,8.1,19c0,5.7-1.4,10.5-4.2,14.3s-6.6,6.6-11.3,8.3l17,29.7c0.2,0.5,0.3,0.9,0.3,1.3
				c0,0.7-0.2,1.3-0.8,1.7c-0.5,0.5-1.1,0.7-1.7,0.7H61.5c-1.3,0-2.3-0.4-3-1.1c-0.7-0.7-1.2-1.4-1.6-2.1l-15-27.6H25.7v27.9
				c0,0.8-0.2,1.4-0.8,2c-0.5,0.5-1.2,0.8-2,0.8H12.3L12.3,132L12.3,132z M25.7,88.1h16.4c4.7,0,8.3-1.1,10.6-3.2
				c2.3-2.1,3.5-5.1,3.5-9S55,69,52.8,66.8s-5.8-3.3-10.6-3.3H25.7C25.7,63.5,25.7,88.1,25.7,88.1z"/>
			<path class="st0" d="M109.1,133.1c-8.6,0-15.4-2.5-20.5-7.4c-5-5-7.8-12-8.1-21.2c-0.1-0.8-0.1-1.8-0.1-3s0-2.2,0.1-2.8
				c0.3-5.9,1.7-10.9,4-15.2c2.4-4.2,5.6-7.5,9.8-9.8s9.1-3.4,14.8-3.4c6.3,0,11.6,1.3,15.8,3.9c4.3,2.6,7.5,6.2,9.7,10.8
				c2.2,4.6,3.3,9.9,3.3,16v2.4c0,0.8-0.3,1.4-0.8,2s-1.2,0.8-2.1,0.8H96.3v0.9c0.1,2.7,0.6,5.2,1.6,7.5c1,2.3,2.4,4.1,4.3,5.5
				s4.2,2.1,6.8,2.1c2.2,0,4-0.3,5.5-1c1.5-0.7,2.7-1.4,3.6-2.3c0.9-0.8,1.6-1.6,2-2.1c0.7-0.9,1.3-1.5,1.7-1.7
				c0.4-0.2,1.1-0.3,1.9-0.3h10c0.8,0,1.4,0.2,1.9,0.7c0.5,0.5,0.7,1.1,0.6,1.8c-0.1,1.2-0.7,2.8-1.9,4.5s-2.9,3.5-5.2,5.2
				c-2.2,1.7-5.1,3.1-8.4,4.2S113.5,133.2,109.1,133.1L109.1,133.1L109.1,133.1z M96.3,96.5H122v-0.3c0-3-0.5-5.7-1.5-8
				c-1-2.3-2.5-4.1-4.4-5.3c-1.9-1.3-4.3-1.9-7-1.9s-5,0.6-7,1.9s-3.4,3.1-4.4,5.3s-1.4,4.9-1.4,8L96.3,96.5L96.3,96.5L96.3,96.5z"
				/>
			<path class="st0" d="M163.9,132c-1.1,0-1.9-0.3-2.4-0.8c-0.5-0.5-1-1.2-1.4-2.1l-16.6-54c-0.1-0.4-0.1-0.7-0.1-1.1
				c0-0.7,0.2-1.3,0.8-1.8s1.1-0.8,1.7-0.8h8.6c0.9,0,1.7,0.2,2.2,0.8c0.5,0.5,0.9,1,0.9,1.4l11.4,38.5L181,74.1
				c0.1-0.5,0.5-1.1,1.1-1.7c0.5-0.6,1.4-0.9,2.4-0.9h5.8c1.1,0,1.9,0.3,2.4,0.9c0.5,0.6,0.9,1.2,1.1,1.7l12.1,38.2l11.4-38.5
				c0.1-0.5,0.4-0.9,0.9-1.4s1.2-0.8,2.1-0.8h8.6c0.7,0,1.3,0.2,1.8,0.8s0.8,1.1,0.8,1.8c0,0.3-0.1,0.7-0.2,1.1l-16.6,54
				c-0.2,0.9-0.6,1.6-1.2,2.1s-1.4,0.8-2.5,0.8h-7.6c-1,0-1.8-0.3-2.5-0.8s-1.1-1.2-1.3-2.1l-12.1-36.8l-12.1,36.8
				c-0.3,0.9-0.8,1.6-1.3,2.1s-1.4,0.8-2.6,0.8H163.9z"/>
			<path class="st0" d="M247.4,61.5c-0.8,0-1.4-0.3-2-0.8s-0.8-1.2-0.8-2v-8.4c0-0.8,0.3-1.4,0.8-2c0.5-0.5,1.2-0.8,2-0.8H258
				c0.9,0,1.5,0.3,2.1,0.8s0.8,1.2,0.8,2v8.4c0,0.8-0.3,1.4-0.8,2s-1.2,0.8-2.1,0.8H247.4z M247.9,132c-0.8,0-1.4-0.3-2-0.8
				s-0.8-1.2-0.8-2V74.3c0-0.8,0.3-1.4,0.8-2s1.2-0.8,2-0.8h9.6c0.9,0,1.5,0.3,2,0.8c0.5,0.5,0.8,1.2,0.8,2v54.9
				c0,0.8-0.2,1.4-0.8,2s-1.2,0.8-2,0.8L247.9,132L247.9,132z"/>
			<path class="st0" d="M278.6,132c-0.8,0-1.4-0.3-2-0.8s-0.8-1.2-0.8-2V74.4c0-0.8,0.3-1.6,0.8-2.1s1.2-0.8,2-0.8h9.4
				c0.8,0,1.5,0.3,2,0.8c0.6,0.5,0.9,1.2,0.9,2.1v4.8c1.8-2.5,4.1-4.4,6.9-5.7c2.8-1.3,6.1-2,9.8-2h4.8c0.9,0,1.5,0.3,2,0.8
				c0.5,0.5,0.8,1.2,0.8,2v8.4c0,0.8-0.2,1.4-0.8,2c-0.5,0.5-1.2,0.8-2,0.8h-9.1c-3.7,0-6.6,1-8.7,3.1s-3.1,4.9-3.1,8.7v32
				c0,0.8-0.3,1.4-0.8,2s-1.2,0.8-2.1,0.8H278.6z"/>
			<path class="st0" d="M329,61.5c-0.8,0-1.4-0.3-2-0.8s-0.8-1.2-0.8-2v-8.4c0-0.8,0.3-1.4,0.8-2c0.5-0.5,1.2-0.8,2-0.8h10.6
				c0.9,0,1.5,0.3,2.1,0.8s0.8,1.2,0.8,2v8.4c0,0.8-0.3,1.4-0.8,2s-1.2,0.8-2.1,0.8H329z M329.4,132c-0.8,0-1.4-0.3-2-0.8
				s-0.8-1.2-0.8-2V74.3c0-0.8,0.3-1.4,0.8-2s1.2-0.8,2-0.8h9.6c0.9,0,1.5,0.3,2,0.8c0.5,0.5,0.8,1.2,0.8,2v54.9
				c0,0.8-0.2,1.4-0.8,2s-1.2,0.8-2,0.8L329.4,132L329.4,132z"/>
			<path class="st0" d="M360.1,132c-0.8,0-1.4-0.3-2-0.8s-0.8-1.2-0.8-2V74.3c0-0.8,0.3-1.4,0.8-2s1.2-0.8,2-0.8h9.5
				c0.8,0,1.4,0.3,2,0.8c0.5,0.5,0.8,1.2,0.8,2v4.8c2-2.5,4.6-4.6,7.7-6.2c3.1-1.7,7-2.5,11.7-2.5s8.8,1.1,12.3,3.2s6.2,5.1,8.1,9
				s2.9,8.5,2.9,14v32.7c0,0.8-0.3,1.4-0.8,2s-1.2,0.8-2,0.8h-10.2c-0.8,0-1.4-0.3-2-0.8s-0.8-1.2-0.8-2v-32c0-4.5-1.1-8-3.3-10.6
				c-2.2-2.6-5.4-3.8-9.6-3.8s-7.2,1.3-9.6,3.8s-3.6,6.1-3.6,10.6v32c0,0.8-0.3,1.4-0.8,2s-1.2,0.8-2,0.8L360.1,132L360.1,132
				L360.1,132z"/>
			<path class="st0" d="M454.9,157.6c-5.7,0-10.3-0.7-14-2.2s-6.5-3.3-8.6-5.4s-3.6-4.2-4.5-6.2c-0.9-2.1-1.4-3.7-1.5-4.8
				c-0.1-0.8,0.2-1.4,0.8-2c0.6-0.6,1.3-0.9,2-0.9h10.1c0.8,0,1.4,0.2,1.9,0.5c0.5,0.4,0.9,1,1.2,1.9c0.5,1,1.1,2.1,1.9,3.3
				c0.8,1.2,2,2.1,3.5,3c1.6,0.8,3.8,1.2,6.6,1.2c3,0,5.4-0.4,7.4-1.3c2-0.9,3.5-2.3,4.6-4.3c1-2,1.6-4.8,1.6-8.4v-7.9
				c-1.9,2.2-4.2,4.1-7.1,5.5c-2.9,1.4-6.5,2.1-10.8,2.1s-7.7-0.7-10.8-2s-5.6-3.3-7.6-5.7c-2-2.4-3.5-5.3-4.6-8.7
				c-1-3.3-1.6-7-1.8-11.1c-0.1-2.1-0.1-4.2,0-6.3c0.1-3.9,0.8-7.5,1.8-10.8c1-3.3,2.6-6.3,4.6-8.8c2-2.5,4.5-4.5,7.6-5.9
				c3.1-1.4,6.6-2.1,10.8-2.1c4.4,0,8.1,0.8,11.2,2.5c3,1.7,5.5,3.7,7.4,6.2v-4.7c0-0.8,0.3-1.6,0.8-2.1s1.2-0.8,2-0.8h9.4
				c0.8,0,1.4,0.3,2,0.8c0.5,0.5,0.8,1.2,0.8,2.1l0.1,56.1c0,5.6-1,10.4-3.1,14.4c-2.1,4-5.2,7.1-9.5,9.4S461.5,157.6,454.9,157.6
				L454.9,157.6z M454.3,119.3c3.2,0,5.7-0.7,7.7-2.1c1.9-1.4,3.4-3.2,4.3-5.5s1.5-4.5,1.6-6.9c0.1-1,0.1-2.3,0.1-3.8s0-2.8-0.1-3.7
				c-0.2-2.4-0.7-4.7-1.6-6.9s-2.4-4-4.3-5.5c-1.9-1.4-4.5-2.2-7.7-2.2s-5.7,0.7-7.7,2.2c-1.9,1.4-3.3,3.3-4.1,5.6s-1.3,4.9-1.5,7.7
				c-0.2,1.9-0.2,3.8,0,5.7c0.2,2.7,0.6,5.2,1.5,7.6s2.2,4.2,4.1,5.6C448.6,118.6,451.2,119.3,454.3,119.3z"/>
		</g>
		<g>
			<path class="st0" d="M2.3,235.5c-0.6,0-1.2-0.2-1.6-0.7s-0.7-1-0.7-1.6c0-0.4,0.1-0.8,0.2-1.3l29.4-75.5c0.3-0.8,0.7-1.4,1.2-1.8
				s1.2-0.6,2.1-0.6h4c0.9,0,1.7,0.2,2.2,0.6s0.9,1,1.2,1.8l29.4,75.5c0.2,0.5,0.2,0.9,0.2,1.3c0,0.6-0.2,1.2-0.7,1.6
				c-0.5,0.5-1,0.7-1.6,0.7h-2.3c-0.8,0-1.4-0.2-1.7-0.6c-0.4-0.4-0.7-0.8-0.8-1.1l-7.2-18.6H14.4l-7.2,18.6
				c-0.1,0.3-0.3,0.7-0.8,1.1s-1,0.6-1.8,0.6H2.3C2.3,235.5,2.3,235.5,2.3,235.5z M17.2,208.2h35.6L35,162.4L17.2,208.2L17.2,208.2
				L17.2,208.2z"/>
			<path class="st0" d="M102.2,236.7c-5.6,0-10.3-1.2-14-3.5c-3.8-2.3-6.6-5.5-8.6-9.5s-3-8.5-3.2-13.5c-0.1-1.2-0.1-2.8-0.1-4.9
				s0-3.7,0.1-4.9c0.2-5,1.2-9.6,3.2-13.6c2-4,4.8-7.1,8.6-9.5s8.4-3.5,14-3.5s10.2,1.2,14,3.5c3.8,2.3,6.6,5.5,8.6,9.5
				c2,4,3,8.5,3.2,13.6c0.1,1.2,0.1,2.8,0.1,4.9s0,3.7-0.1,4.9c-0.2,5-1.2,9.5-3.2,13.5c-2,4-4.8,7.2-8.6,9.5
				C112.5,235.6,107.8,236.7,102.2,236.7z M102.2,230c5.4,0,9.8-1.8,13.3-5.2c3.4-3.5,5.2-8.5,5.5-15.1c0.1-1.2,0.1-2.6,0.1-4.3
				s0-3.1-0.1-4.3c-0.2-6.7-2.1-11.7-5.5-15.2s-7.8-5.2-13.3-5.2s-9.8,1.7-13.3,5.2s-5.2,8.5-5.5,15.2c-0.1,1.2-0.1,2.6-0.1,4.3
				s0,3.1,0.1,4.3c0.2,6.6,2.1,11.6,5.5,15.1C92.4,228.2,96.8,230,102.2,230L102.2,230z"/>
			<path class="st0" d="M161.4,235.5c-4,0-7.2-0.9-9.5-2.6c-2.3-1.7-3.9-4-4.9-7c-0.9-2.9-1.4-6.2-1.4-9.9v-34.3h-9.1
				c-0.8,0-1.4-0.2-1.9-0.7s-0.7-1.1-0.7-1.9v-1.6c0-0.8,0.2-1.4,0.7-1.9c0.5-0.5,1.1-0.7,1.9-0.7h9.1v-19.5c0-0.8,0.2-1.4,0.7-1.9
				s1.1-0.7,1.9-0.7h2c0.8,0,1.4,0.2,1.9,0.7s0.7,1.1,0.7,1.9v19.5h14.4c0.8,0,1.4,0.2,1.9,0.7s0.7,1.1,0.7,1.9v1.6
				c0,0.8-0.2,1.4-0.7,1.9s-1.1,0.7-1.9,0.7h-14.4v33.9c0,4.1,0.7,7.3,2,9.6c1.4,2.3,3.8,3.5,7.3,3.5h6.3c0.8,0,1.4,0.2,1.9,0.7
				s0.7,1.1,0.7,1.9v1.6c0,0.8-0.2,1.4-0.7,1.9c-0.5,0.5-1.1,0.7-1.9,0.7L161.4,235.5L161.4,235.5z"/>
			<path class="st0" d="M203,236.7c-7.5,0-13.5-2.5-17.9-7.4c-4.4-4.9-6.9-11.4-7.6-19.4c-0.1-1.2-0.1-2.7-0.1-4.6s0-3.5,0.1-4.6
				c0.4-5.3,1.6-9.9,3.7-14c2.1-4,5-7.2,8.7-9.4c3.7-2.2,8-3.4,13.1-3.4c5.4,0,10,1.2,13.8,3.6s6.7,5.9,8.8,10.4
				c2.1,4.5,3.1,9.9,3.1,16.1v1.7c0,0.8-0.2,1.4-0.8,1.9c-0.5,0.5-1.1,0.7-1.9,0.7h-41.4v1.2c0.1,3.5,1,6.8,2.4,9.9
				c1.5,3.1,3.6,5.7,6.3,7.7c2.7,2,5.9,3,9.7,3c3.3,0,6.1-0.5,8.3-1.5c2.2-1,4-2.1,5.3-3.3c1.3-1.2,2.2-2.1,2.6-2.7
				c0.7-1,1.2-1.6,1.6-1.8s1-0.3,1.9-0.3h1.9c0.7,0,1.3,0.2,1.8,0.6s0.7,1,0.6,1.7c-0.1,1.1-0.7,2.4-1.8,4c-1.1,1.6-2.7,3.2-4.8,4.7
				s-4.6,2.8-7.5,3.8C209.9,236.2,206.6,236.7,203,236.7L203,236.7L203,236.7z M184.6,201.7h37v-0.5c0-3.9-0.7-7.4-2.2-10.5
				s-3.6-5.6-6.4-7.4c-2.8-1.8-6.1-2.7-10-2.7s-7.2,0.9-9.9,2.7c-2.8,1.8-4.9,4.3-6.3,7.4c-1.4,3.1-2.1,6.6-2.1,10.5L184.6,201.7
				L184.6,201.7L184.6,201.7z"/>
			<path class="st0" d="M258,236.7c-3.7,0-7.1-0.8-10.3-2.3s-5.7-3.6-7.6-6.2s-2.9-5.5-2.9-8.8c0-5.3,2.1-9.5,6.4-12.7
				c4.3-3.2,9.8-5.2,16.6-6.2l18.4-2.6v-4.1c0-4.1-1.3-7.4-3.8-9.7s-6.5-3.6-12-3.6c-4,0-7.3,0.8-9.8,2.4c-2.5,1.6-4.2,3.7-5.1,6.2
				c-0.4,1.2-1.1,1.7-2.2,1.7h-1.9c-0.9,0-1.6-0.2-2-0.8c-0.4-0.5-0.6-1.1-0.6-1.8c0-1.1,0.4-2.4,1.2-4.1s2.1-3.2,3.8-4.8
				c1.7-1.6,3.9-2.9,6.6-4s6-1.6,9.9-1.6c4.6,0,8.4,0.6,11.3,1.9s5.3,2.9,7,4.8s2.9,4.2,3.5,6.6c0.7,2.4,1,4.8,1,7.1V233
				c0,0.8-0.2,1.4-0.7,1.9s-1.1,0.7-1.9,0.7h-2c-0.8,0-1.4-0.2-1.9-0.7s-0.7-1.1-0.7-1.9v-5.5c-0.9,1.4-2.2,2.8-4,4.2
				c-1.7,1.4-3.9,2.6-6.6,3.6C265.4,236.2,262,236.7,258,236.7L258,236.7L258,236.7z M259.2,230c3.6,0,6.8-0.8,9.8-2.3
				c3-1.6,5.3-3.9,7-7.1s2.6-7.3,2.6-12.2v-4l-15,2.1c-6.4,0.9-11.2,2.3-14.4,4.4s-4.9,4.7-4.9,7.9c0,2.6,0.7,4.6,2.2,6.3
				s3.4,2.9,5.6,3.7S256.8,229.9,259.2,230L259.2,230z"/>
			<path class="st0" d="M304.3,235.5c-0.8,0-1.4-0.2-1.9-0.7c-0.5-0.5-0.7-1.1-0.7-1.9v-55.2c0-0.8,0.2-1.4,0.7-1.9
				c0.5-0.5,1.1-0.8,1.9-0.8h1.9c0.8,0,1.4,0.2,1.9,0.8c0.5,0.5,0.8,1.1,0.8,1.9v5.4c1.4-2.7,3.4-4.7,6-6.1c2.6-1.3,5.9-2,9.8-2h4.3
				c0.8,0,1.4,0.2,1.9,0.7c0.5,0.5,0.7,1.1,0.7,1.9v1.6c0,0.8-0.2,1.4-0.7,1.9c-0.5,0.5-1.1,0.7-1.9,0.7h-5c-4.6,0-8.3,1.4-11,4.1
				s-4.1,6.4-4.1,11.1V233c0,0.8-0.2,1.4-0.8,1.9c-0.5,0.5-1.1,0.7-1.9,0.7L304.3,235.5L304.3,235.5L304.3,235.5z"/>
			<path class="st0" d="M361.5,236.7c-5.6,0-10.3-1.2-14-3.5c-3.8-2.3-6.6-5.5-8.6-9.5c-2-4-3-8.5-3.2-13.5
				c-0.1-1.2-0.1-2.8-0.1-4.9s0-3.7,0.1-4.9c0.2-5,1.2-9.6,3.2-13.6s4.9-7.1,8.6-9.5c3.8-2.3,8.4-3.5,14-3.5s10.2,1.2,14,3.5
				c3.8,2.3,6.6,5.5,8.6,9.5c2,4,3,8.5,3.2,13.6c0.1,1.2,0.1,2.8,0.1,4.9s0,3.7-0.1,4.9c-0.2,5-1.2,9.5-3.2,13.5s-4.9,7.2-8.6,9.5
				C371.8,235.6,367.1,236.7,361.5,236.7z M361.5,230c5.4,0,9.9-1.8,13.3-5.2c3.4-3.5,5.2-8.5,5.5-15.1c0.1-1.2,0.1-2.6,0.1-4.3
				s0-3.1-0.1-4.3c-0.2-6.7-2.1-11.7-5.5-15.2s-7.8-5.2-13.3-5.2s-9.9,1.7-13.3,5.2s-5.2,8.5-5.5,15.2c-0.1,1.2-0.1,2.6-0.1,4.3
				s0,3.1,0.1,4.3c0.2,6.6,2,11.6,5.5,15.1C351.7,228.2,356.1,230,361.5,230L361.5,230z"/>
			<path class="st0" d="M417.4,236.7c-3.7,0-7.1-0.8-10.3-2.3s-5.7-3.6-7.6-6.2s-2.9-5.5-2.9-8.8c0-5.3,2.1-9.5,6.4-12.7
				c4.3-3.2,9.8-5.2,16.6-6.2l18.4-2.6v-4.1c0-4.1-1.3-7.4-3.8-9.7s-6.5-3.6-12-3.6c-4,0-7.3,0.8-9.8,2.4c-2.5,1.6-4.2,3.7-5.1,6.2
				c-0.4,1.2-1.1,1.7-2.2,1.7h-1.9c-0.9,0-1.6-0.2-2-0.8c-0.4-0.5-0.6-1.1-0.6-1.8c0-1.1,0.4-2.4,1.2-4.1s2.1-3.2,3.8-4.8
				s3.9-2.9,6.6-4s6-1.6,9.9-1.6c4.6,0,8.4,0.6,11.3,1.9s5.3,2.9,7,4.8s2.9,4.2,3.5,6.6c0.7,2.4,1,4.8,1,7.1V233
				c0,0.8-0.2,1.4-0.7,1.9s-1.1,0.7-1.9,0.7h-2c-0.8,0-1.4-0.2-1.9-0.7s-0.7-1.1-0.7-1.9v-5.5c-0.9,1.4-2.2,2.8-4,4.2
				c-1.7,1.4-3.9,2.6-6.6,3.6C424.7,236.2,421.4,236.7,417.4,236.7L417.4,236.7L417.4,236.7z M418.5,230c3.6,0,6.8-0.8,9.8-2.3
				c3-1.6,5.3-3.9,7-7.1s2.6-7.3,2.6-12.2v-4l-15,2.1c-6.4,0.9-11.2,2.3-14.4,4.4s-4.9,4.7-4.9,7.9c0,2.6,0.7,4.6,2.2,6.3
				s3.4,2.9,5.6,3.7S416.1,229.9,418.5,230L418.5,230z"/>
		</g>
	</g>
</g>
</svg>
